<svg width="329" height="37" viewBox="0 0 329 37" fill="none" xmlns="http://www.w3.org/2000/svg">
<mask id="path-1-outside-1_156_203" maskUnits="userSpaceOnUse" x="0" y="0" width="329" height="37" fill="black">
<rect fill="white" width="329" height="37"/>
<path d="M1 35.272V1.672H10.744L18.088 31.816H18.856L26.2 1.672H35.944V35.272H30.904V5.32H30.136L22.84 35.272H14.104L6.808 5.32H6.04V35.272H1Z"/>
<path d="M55.5771 35.944C51.4491 35.944 48.1691 34.792 45.7371 32.488C43.3051 30.152 42.0891 26.792 42.0891 22.408V14.536C42.0891 10.152 43.3051 6.808 45.7371 4.504C48.1691 2.168 51.4491 1 55.5771 1C59.7051 1 62.9851 2.168 65.4171 4.504C67.8811 6.808 69.1131 10.152 69.1131 14.536V22.408C69.1131 26.792 67.8811 30.152 65.4171 32.488C62.9851 34.792 59.7051 35.944 55.5771 35.944ZM55.5771 31.288C58.2331 31.288 60.2811 30.52 61.7211 28.984C63.1611 27.416 63.8811 25.288 63.8811 22.6V14.344C63.8811 11.656 63.1611 9.544 61.7211 8.008C60.2811 6.44 58.2331 5.656 55.5771 5.656C52.9851 5.656 50.9531 6.44 49.4811 8.008C48.0091 9.544 47.2731 11.656 47.2731 14.344V22.6C47.2731 25.288 48.0091 27.416 49.4811 28.984C50.9531 30.52 52.9851 31.288 55.5771 31.288Z"/>
<path d="M75.25 35.272V1.672H84.994L92.338 31.816H93.106L100.45 1.672H110.194V35.272H105.154V5.32H104.386L97.09 35.272H88.354L81.058 5.32H80.29V35.272H75.25Z"/>
<path d="M125.219 35.272V6.376H114.899V1.672H140.723V6.376H130.403V35.272H125.219Z"/>
<path d="M139.598 35.272L149.198 1.672H158.318L167.87 35.272H162.542L160.334 27.352H147.182L144.974 35.272H139.598ZM148.478 22.552H159.038L154.142 4.888H153.374L148.478 22.552Z"/>
<path d="M171.222 35.272V28.552L188.886 7V6.328H171.75V1.672H194.214V8.392L176.55 29.944V30.616H194.406V35.272H171.222Z"/>
<path d="M212.359 35.272V1.672H217.543V16.072H231.655V1.672H236.839V35.272H231.655V20.776H217.543V35.272H212.359Z"/>
<path d="M256.483 35.944C252.355 35.944 249.075 34.792 246.643 32.488C244.211 30.152 242.995 26.792 242.995 22.408V14.536C242.995 10.152 244.211 6.808 246.643 4.504C249.075 2.168 252.355 1 256.483 1C260.611 1 263.891 2.168 266.323 4.504C268.787 6.808 270.019 10.152 270.019 14.536V22.408C270.019 26.792 268.787 30.152 266.323 32.488C263.891 34.792 260.611 35.944 256.483 35.944ZM256.483 31.288C259.139 31.288 261.187 30.52 262.627 28.984C264.067 27.416 264.787 25.288 264.787 22.6V14.344C264.787 11.656 264.067 9.544 262.627 8.008C261.187 6.44 259.139 5.656 256.483 5.656C253.891 5.656 251.859 6.44 250.387 8.008C248.915 9.544 248.179 11.656 248.179 14.344V22.6C248.179 25.288 248.915 27.416 250.387 28.984C251.859 30.52 253.891 31.288 256.483 31.288Z"/>
<path d="M287.58 35.944C285.052 35.944 282.812 35.496 280.86 34.6C278.908 33.704 277.372 32.392 276.252 30.664C275.164 28.904 274.62 26.776 274.62 24.28V23.08H279.756V24.28C279.756 26.648 280.46 28.424 281.868 29.608C283.308 30.792 285.212 31.384 287.58 31.384C289.98 31.384 291.788 30.888 293.004 29.896C294.22 28.872 294.828 27.56 294.828 25.96C294.828 24.904 294.54 24.04 293.964 23.368C293.388 22.696 292.572 22.168 291.516 21.784C290.46 21.368 289.196 20.984 287.724 20.632L285.948 20.2C283.804 19.688 281.932 19.064 280.332 18.328C278.764 17.56 277.548 16.552 276.684 15.304C275.82 14.056 275.388 12.456 275.388 10.504C275.388 8.52 275.868 6.824 276.828 5.416C277.82 4.008 279.18 2.92 280.908 2.152C282.636 1.384 284.668 1 287.004 1C289.34 1 291.42 1.4 293.244 2.2C295.1 3 296.556 4.184 297.612 5.752C298.668 7.32 299.196 9.288 299.196 11.656V13.384H294.06V11.656C294.06 10.216 293.756 9.048 293.148 8.152C292.572 7.256 291.756 6.6 290.7 6.184C289.644 5.768 288.412 5.56 287.004 5.56C284.956 5.56 283.356 5.992 282.204 6.856C281.084 7.688 280.524 8.856 280.524 10.36C280.524 11.384 280.764 12.232 281.244 12.904C281.756 13.544 282.492 14.072 283.452 14.488C284.412 14.904 285.612 15.272 287.052 15.592L288.828 16.024C291.004 16.504 292.924 17.128 294.588 17.896C296.252 18.632 297.564 19.64 298.524 20.92C299.484 22.2 299.964 23.848 299.964 25.864C299.964 27.88 299.452 29.64 298.428 31.144C297.436 32.648 296.012 33.832 294.156 34.696C292.3 35.528 290.108 35.944 287.58 35.944Z"/>
<path d="M312.157 35.272V6.376H301.837V1.672H327.661V6.376H317.341V35.272H312.157Z"/>
</mask>
<path d="M1 35.272V1.672H10.744L18.088 31.816H18.856L26.2 1.672H35.944V35.272H30.904V5.32H30.136L22.84 35.272H14.104L6.808 5.32H6.04V35.272H1Z" fill="white"/>
<path d="M55.5771 35.944C51.4491 35.944 48.1691 34.792 45.7371 32.488C43.3051 30.152 42.0891 26.792 42.0891 22.408V14.536C42.0891 10.152 43.3051 6.808 45.7371 4.504C48.1691 2.168 51.4491 1 55.5771 1C59.7051 1 62.9851 2.168 65.4171 4.504C67.8811 6.808 69.1131 10.152 69.1131 14.536V22.408C69.1131 26.792 67.8811 30.152 65.4171 32.488C62.9851 34.792 59.7051 35.944 55.5771 35.944ZM55.5771 31.288C58.2331 31.288 60.2811 30.52 61.7211 28.984C63.1611 27.416 63.8811 25.288 63.8811 22.6V14.344C63.8811 11.656 63.1611 9.544 61.7211 8.008C60.2811 6.44 58.2331 5.656 55.5771 5.656C52.9851 5.656 50.9531 6.44 49.4811 8.008C48.0091 9.544 47.2731 11.656 47.2731 14.344V22.6C47.2731 25.288 48.0091 27.416 49.4811 28.984C50.9531 30.52 52.9851 31.288 55.5771 31.288Z" fill="white"/>
<path d="M75.25 35.272V1.672H84.994L92.338 31.816H93.106L100.45 1.672H110.194V35.272H105.154V5.32H104.386L97.09 35.272H88.354L81.058 5.32H80.29V35.272H75.25Z" fill="white"/>
<path d="M125.219 35.272V6.376H114.899V1.672H140.723V6.376H130.403V35.272H125.219Z" fill="white"/>
<path d="M139.598 35.272L149.198 1.672H158.318L167.87 35.272H162.542L160.334 27.352H147.182L144.974 35.272H139.598ZM148.478 22.552H159.038L154.142 4.888H153.374L148.478 22.552Z" fill="white"/>
<path d="M171.222 35.272V28.552L188.886 7V6.328H171.75V1.672H194.214V8.392L176.55 29.944V30.616H194.406V35.272H171.222Z" fill="white"/>
<path d="M212.359 35.272V1.672H217.543V16.072H231.655V1.672H236.839V35.272H231.655V20.776H217.543V35.272H212.359Z" fill="white"/>
<path d="M256.483 35.944C252.355 35.944 249.075 34.792 246.643 32.488C244.211 30.152 242.995 26.792 242.995 22.408V14.536C242.995 10.152 244.211 6.808 246.643 4.504C249.075 2.168 252.355 1 256.483 1C260.611 1 263.891 2.168 266.323 4.504C268.787 6.808 270.019 10.152 270.019 14.536V22.408C270.019 26.792 268.787 30.152 266.323 32.488C263.891 34.792 260.611 35.944 256.483 35.944ZM256.483 31.288C259.139 31.288 261.187 30.52 262.627 28.984C264.067 27.416 264.787 25.288 264.787 22.6V14.344C264.787 11.656 264.067 9.544 262.627 8.008C261.187 6.44 259.139 5.656 256.483 5.656C253.891 5.656 251.859 6.44 250.387 8.008C248.915 9.544 248.179 11.656 248.179 14.344V22.6C248.179 25.288 248.915 27.416 250.387 28.984C251.859 30.52 253.891 31.288 256.483 31.288Z" fill="white"/>
<path d="M287.58 35.944C285.052 35.944 282.812 35.496 280.86 34.6C278.908 33.704 277.372 32.392 276.252 30.664C275.164 28.904 274.62 26.776 274.62 24.28V23.08H279.756V24.28C279.756 26.648 280.46 28.424 281.868 29.608C283.308 30.792 285.212 31.384 287.58 31.384C289.98 31.384 291.788 30.888 293.004 29.896C294.22 28.872 294.828 27.56 294.828 25.96C294.828 24.904 294.54 24.04 293.964 23.368C293.388 22.696 292.572 22.168 291.516 21.784C290.46 21.368 289.196 20.984 287.724 20.632L285.948 20.2C283.804 19.688 281.932 19.064 280.332 18.328C278.764 17.56 277.548 16.552 276.684 15.304C275.82 14.056 275.388 12.456 275.388 10.504C275.388 8.52 275.868 6.824 276.828 5.416C277.82 4.008 279.18 2.92 280.908 2.152C282.636 1.384 284.668 1 287.004 1C289.34 1 291.42 1.4 293.244 2.2C295.1 3 296.556 4.184 297.612 5.752C298.668 7.32 299.196 9.288 299.196 11.656V13.384H294.06V11.656C294.06 10.216 293.756 9.048 293.148 8.152C292.572 7.256 291.756 6.6 290.7 6.184C289.644 5.768 288.412 5.56 287.004 5.56C284.956 5.56 283.356 5.992 282.204 6.856C281.084 7.688 280.524 8.856 280.524 10.36C280.524 11.384 280.764 12.232 281.244 12.904C281.756 13.544 282.492 14.072 283.452 14.488C284.412 14.904 285.612 15.272 287.052 15.592L288.828 16.024C291.004 16.504 292.924 17.128 294.588 17.896C296.252 18.632 297.564 19.64 298.524 20.92C299.484 22.2 299.964 23.848 299.964 25.864C299.964 27.88 299.452 29.64 298.428 31.144C297.436 32.648 296.012 33.832 294.156 34.696C292.3 35.528 290.108 35.944 287.58 35.944Z" fill="white"/>
<path d="M312.157 35.272V6.376H301.837V1.672H327.661V6.376H317.341V35.272H312.157Z" fill="white"/>
<path d="M1 35.272V1.672H10.744L18.088 31.816H18.856L26.2 1.672H35.944V35.272H30.904V5.32H30.136L22.84 35.272H14.104L6.808 5.32H6.04V35.272H1Z" stroke="white" stroke-width="2" mask="url(#path-1-outside-1_156_203)"/>
<path d="M55.5771 35.944C51.4491 35.944 48.1691 34.792 45.7371 32.488C43.3051 30.152 42.0891 26.792 42.0891 22.408V14.536C42.0891 10.152 43.3051 6.808 45.7371 4.504C48.1691 2.168 51.4491 1 55.5771 1C59.7051 1 62.9851 2.168 65.4171 4.504C67.8811 6.808 69.1131 10.152 69.1131 14.536V22.408C69.1131 26.792 67.8811 30.152 65.4171 32.488C62.9851 34.792 59.7051 35.944 55.5771 35.944ZM55.5771 31.288C58.2331 31.288 60.2811 30.52 61.7211 28.984C63.1611 27.416 63.8811 25.288 63.8811 22.6V14.344C63.8811 11.656 63.1611 9.544 61.7211 8.008C60.2811 6.44 58.2331 5.656 55.5771 5.656C52.9851 5.656 50.9531 6.44 49.4811 8.008C48.0091 9.544 47.2731 11.656 47.2731 14.344V22.6C47.2731 25.288 48.0091 27.416 49.4811 28.984C50.9531 30.52 52.9851 31.288 55.5771 31.288Z" stroke="white" stroke-width="2" mask="url(#path-1-outside-1_156_203)"/>
<path d="M75.25 35.272V1.672H84.994L92.338 31.816H93.106L100.45 1.672H110.194V35.272H105.154V5.32H104.386L97.09 35.272H88.354L81.058 5.32H80.29V35.272H75.25Z" stroke="white" stroke-width="2" mask="url(#path-1-outside-1_156_203)"/>
<path d="M125.219 35.272V6.376H114.899V1.672H140.723V6.376H130.403V35.272H125.219Z" stroke="white" stroke-width="2" mask="url(#path-1-outside-1_156_203)"/>
<path d="M139.598 35.272L149.198 1.672H158.318L167.87 35.272H162.542L160.334 27.352H147.182L144.974 35.272H139.598ZM148.478 22.552H159.038L154.142 4.888H153.374L148.478 22.552Z" stroke="white" stroke-width="2" mask="url(#path-1-outside-1_156_203)"/>
<path d="M171.222 35.272V28.552L188.886 7V6.328H171.75V1.672H194.214V8.392L176.55 29.944V30.616H194.406V35.272H171.222Z" stroke="white" stroke-width="2" mask="url(#path-1-outside-1_156_203)"/>
<path d="M212.359 35.272V1.672H217.543V16.072H231.655V1.672H236.839V35.272H231.655V20.776H217.543V35.272H212.359Z" stroke="white" stroke-width="2" mask="url(#path-1-outside-1_156_203)"/>
<path d="M256.483 35.944C252.355 35.944 249.075 34.792 246.643 32.488C244.211 30.152 242.995 26.792 242.995 22.408V14.536C242.995 10.152 244.211 6.808 246.643 4.504C249.075 2.168 252.355 1 256.483 1C260.611 1 263.891 2.168 266.323 4.504C268.787 6.808 270.019 10.152 270.019 14.536V22.408C270.019 26.792 268.787 30.152 266.323 32.488C263.891 34.792 260.611 35.944 256.483 35.944ZM256.483 31.288C259.139 31.288 261.187 30.52 262.627 28.984C264.067 27.416 264.787 25.288 264.787 22.6V14.344C264.787 11.656 264.067 9.544 262.627 8.008C261.187 6.44 259.139 5.656 256.483 5.656C253.891 5.656 251.859 6.44 250.387 8.008C248.915 9.544 248.179 11.656 248.179 14.344V22.6C248.179 25.288 248.915 27.416 250.387 28.984C251.859 30.52 253.891 31.288 256.483 31.288Z" stroke="white" stroke-width="2" mask="url(#path-1-outside-1_156_203)"/>
<path d="M287.58 35.944C285.052 35.944 282.812 35.496 280.86 34.6C278.908 33.704 277.372 32.392 276.252 30.664C275.164 28.904 274.62 26.776 274.62 24.28V23.08H279.756V24.28C279.756 26.648 280.46 28.424 281.868 29.608C283.308 30.792 285.212 31.384 287.58 31.384C289.98 31.384 291.788 30.888 293.004 29.896C294.22 28.872 294.828 27.56 294.828 25.96C294.828 24.904 294.54 24.04 293.964 23.368C293.388 22.696 292.572 22.168 291.516 21.784C290.46 21.368 289.196 20.984 287.724 20.632L285.948 20.2C283.804 19.688 281.932 19.064 280.332 18.328C278.764 17.56 277.548 16.552 276.684 15.304C275.82 14.056 275.388 12.456 275.388 10.504C275.388 8.52 275.868 6.824 276.828 5.416C277.82 4.008 279.18 2.92 280.908 2.152C282.636 1.384 284.668 1 287.004 1C289.34 1 291.42 1.4 293.244 2.2C295.1 3 296.556 4.184 297.612 5.752C298.668 7.32 299.196 9.288 299.196 11.656V13.384H294.06V11.656C294.06 10.216 293.756 9.048 293.148 8.152C292.572 7.256 291.756 6.6 290.7 6.184C289.644 5.768 288.412 5.56 287.004 5.56C284.956 5.56 283.356 5.992 282.204 6.856C281.084 7.688 280.524 8.856 280.524 10.36C280.524 11.384 280.764 12.232 281.244 12.904C281.756 13.544 282.492 14.072 283.452 14.488C284.412 14.904 285.612 15.272 287.052 15.592L288.828 16.024C291.004 16.504 292.924 17.128 294.588 17.896C296.252 18.632 297.564 19.64 298.524 20.92C299.484 22.2 299.964 23.848 299.964 25.864C299.964 27.88 299.452 29.64 298.428 31.144C297.436 32.648 296.012 33.832 294.156 34.696C292.3 35.528 290.108 35.944 287.58 35.944Z" stroke="white" stroke-width="2" mask="url(#path-1-outside-1_156_203)"/>
<path d="M312.157 35.272V6.376H301.837V1.672H327.661V6.376H317.341V35.272H312.157Z" stroke="white" stroke-width="2" mask="url(#path-1-outside-1_156_203)"/>
</svg>
